<svg width="251" height="100" viewBox="0 0 251 100" fill="none" xmlns="http://www.w3.org/2000/svg">
<path fill-rule="evenodd" clip-rule="evenodd" d="M99.9776 48.4885L50 48.4886C48.6193 48.4886 47.5 49.6079 47.5 50.9886C47.5 52.3693 48.6193 53.4886 50 53.4886L99.8802 53.4885C98.0892 79.4752 76.4415 100 50 100C22.3858 100 0 77.6142 0 50C0 22.3858 22.3858 0 50 0C77.1086 0 99.1785 21.5735 99.9776 48.4885Z" fill="white"/>
<path d="M110.586 65.584C111.482 64.336 112.682 63.392 114.186 62.752C115.722 62.112 117.482 61.792 119.466 61.792V68.704C118.634 68.64 118.074 68.608 117.786 68.608C115.642 68.608 113.962 69.216 112.746 70.432C111.53 71.616 110.922 73.408 110.922 75.808V88H103.434V62.176H110.586V65.584ZM135.972 88.384C133.252 88.384 130.804 87.824 128.628 86.704C126.484 85.552 124.804 83.968 123.588 81.952C122.372 79.936 121.764 77.648 121.764 75.088C121.764 72.528 122.372 70.24 123.588 68.224C124.804 66.208 126.484 64.64 128.628 63.52C130.804 62.368 133.252 61.792 135.972 61.792C138.692 61.792 141.124 62.368 143.268 63.52C145.412 64.64 147.092 66.208 148.308 68.224C149.524 70.24 150.132 72.528 150.132 75.088C150.132 77.648 149.524 79.936 148.308 81.952C147.092 83.968 145.412 85.552 143.268 86.704C141.124 87.824 138.692 88.384 135.972 88.384ZM135.972 82.24C137.892 82.24 139.46 81.6 140.676 80.32C141.924 79.008 142.548 77.264 142.548 75.088C142.548 72.912 141.924 71.184 140.676 69.904C139.46 68.592 137.892 67.936 135.972 67.936C134.052 67.936 132.468 68.592 131.22 69.904C129.972 71.184 129.348 72.912 129.348 75.088C129.348 77.264 129.972 79.008 131.22 80.32C132.468 81.6 134.052 82.24 135.972 82.24ZM195.906 62.176L186.546 88H179.346L173.538 71.968L167.538 88H160.338L151.026 62.176H158.082L164.178 79.648L170.514 62.176H176.85L182.994 79.648L189.282 62.176H195.906ZM216.746 86.752C216.01 87.296 215.098 87.712 214.01 88C212.954 88.256 211.834 88.384 210.65 88.384C207.578 88.384 205.194 87.6 203.498 86.032C201.834 84.464 201.002 82.16 201.002 79.12V68.512H197.018V62.752H201.002V56.464H208.49V62.752H214.922V68.512H208.49V79.024C208.49 80.112 208.762 80.96 209.306 81.568C209.882 82.144 210.682 82.432 211.706 82.432C212.89 82.432 213.898 82.112 214.73 81.472L216.746 86.752ZM236.645 61.792C239.845 61.792 242.421 62.752 244.373 64.672C246.357 66.592 247.349 69.44 247.349 73.216V88H239.861V74.368C239.861 72.32 239.413 70.8 238.517 69.808C237.621 68.784 236.325 68.272 234.629 68.272C232.741 68.272 231.237 68.864 230.117 70.048C228.997 71.2 228.437 72.928 228.437 75.232V88H220.949V52.384H228.437V64.864C229.429 63.872 230.629 63.12 232.037 62.608C233.445 62.064 234.981 61.792 236.645 61.792Z" fill="white"/>
</svg>
